[Header]
FileType HTR
DataType HTRS
FileVersion 1
NumSegments 64
NumFrames 3
DataFrameRate 30
EulerRotationOrder ZYX
CalibrationUnits mm
RotationUnits Degrees
GlobalAxisofGravity Y
BoneLengthAxis Y
ScaleFactor 1.0
[SegmentNames&Hierarchy]
Hips	GLOBAL
Spine	Hips
Spine1	Spine
Spine2	Spine1
Neck	Spine2
Head	Neck
LeftEye	Head
RightEye	Head
LeftShoulder	Spine2
LeftArm	LeftShoulder
LeftForeArm	LeftArm
LeftHand	LeftForeArm
LeftHandThumb1	LeftHand
LeftHandThumb2	LeftHandThumb1
LeftHandThumb3	LeftHandThumb2
LeftHandThumb4	LeftHandThumb3
LeftHandIndex1	LeftHand
LeftHandIndex2	LeftHandIndex1
LeftHandIndex3	LeftHandIndex2
LeftHandIndex4	LeftHandIndex3
LeftHandMiddle1	LeftHand
LeftHandMiddle2	LeftHandMiddle1
LeftHandMiddle3	LeftHandMiddle2
LeftHandMiddle4	LeftHandMiddle3
LeftHandRing1	LeftHand
LeftHandRing2	LeftHandRing1
LeftHandRing3	LeftHandRing2
LeftHandRing4	LeftHandRing3
LeftHandPinky1	LeftHand
LeftHandPinky2	LeftHandPinky1
LeftHandPinky3	LeftHandPinky2
LeftHandPinky4	LeftHandPinky3
RightShoulder	Spine2
RightArm	RightShoulder
RightForeArm	RightArm
RightHand	RightForeArm
RightHandPinky1	RightHand
RightHandPinky2	RightHandPinky1
RightHandPinky3	RightHandPinky2
RightHandPinky4	RightHandPinky3
RightHandRing1	RightHand
RightHandRing2	RightHandRing1
RightHandRing3	RightHandRing2
RightHandRing4	RightHandRing3
RightHandMiddle1	RightHand
RightHandMiddle2	RightHandMiddle1
RightHandMiddle3	RightHandMiddle2
RightHandMiddle4	RightHandMiddle3
RightHandIndex1	RightHand
RightHandIndex2	RightHandIndex1
RightHandIndex3	RightHandIndex2
RightHandIndex4	RightHandIndex3
RightHandThumb1	RightHand
RightHandThumb2	RightHandThumb1
RightHandThumb3	RightHandThumb2
RightHandThumb4	RightHandThumb3
LeftUpLeg	Hips
LeftLeg	LeftUpLeg
LeftFoot	LeftLeg
LeftToeBase	LeftFoot
RightUpLeg	Hips
RightLeg	RightUpLeg
RightFoot	RightLeg
RightToeBase	RightFoot
[BasePosition]
Hips	0	0	0	0	0	0	1
Spine	0	0	0	0	0	0	1
Spine1	0	0	0	0	0	0	1
Spine2	0	0	0	0	0	0	1
Neck	0	0	0	0	0	0	1
Head	0	0	0	0	0	0	1
LeftEye	0	0	0	0	0	0	1
RightEye	0	0	0	0	0	0	1
LeftShoulder	0	0	0	0	0	0	1
LeftArm	0	0	0	0	0	0	1
LeftForeArm	0	0	0	0	0	0	1
LeftHand	0	0	0	0	0	0	1
LeftHandThumb1	0	0	0	0	0	0	1
LeftHandThumb2	0	0	0	0	0	0	1
LeftHandThumb3	0	0	0	0	0	0	1
LeftHandThumb4	0	0	0	0	0	0	1
LeftHandIndex1	0	0	0	0	0	0	1
LeftHandIndex2	0	0	0	0	0	0	1
LeftHandIndex3	0	0	0	0	0	0	1
LeftHandIndex4	0	0	0	0	0	0	1
LeftHandMiddle1	0	0	0	0	0	0	1
LeftHandMiddle2	0	0	0	0	0	0	1
LeftHandMiddle3	0	0	0	0	0	0	1
LeftHandMiddle4	0	0	0	0	0	0	1
LeftHandRing1	0	0	0	0	0	0	1
LeftHandRing2	0	0	0	0	0	0	1
LeftHandRing3	0	0	0	0	0	0	1
LeftHandRing4	0	0	0	0	0	0	1
LeftHandPinky1	0	0	0	0	0	0	1
LeftHandPinky2	0	0	0	0	0	0	1
LeftHandPinky3	0	0	0	0	0	0	1
LeftHandPinky4	0	0	0	0	0	0	1
RightShoulder	0	0	0	0	0	0	1
RightArm	0	0	0	0	0	0	1
RightForeArm	0	0	0	0	0	0	1
RightHand	0	0	0	0	0	0	1
RightHandPinky1	0	0	0	0	0	0	1
RightHandPinky2	0	0	0	0	0	0	1
RightHandPinky3	0	0	0	0	0	0	1
RightHandPinky4	0	0	0	0	0	0	1
RightHandRing1	0	0	0	0	0	0	1
RightHandRing2	0	0	0	0	0	0	1
RightHandRing3	0	0	0	0	0	0	1
RightHandRing4	0	0	0	0	0	0	1
RightHandMiddle1	0	0	0	0	0	0	1
RightHandMiddle2	0	0	0	0	0	0	1
RightHandMiddle3	0	0	0	0	0	0	1
RightHandMiddle4	0	0	0	0	0	0	1
RightHandIndex1	0	0	0	0	0	0	1
RightHandIndex2	0	0	0	0	0	0	1
RightHandIndex3	0	0	0	0	0	0	1
RightHandIndex4	0	0	0	0	0	0	1
RightHandThumb1	0	0	0	0	0	0	1
RightHandThumb2	0	0	0	0	0	0	1
RightHandThumb3	0	0	0	0	0	0	1
RightHandThumb4	0	0	0	0	0	0	1
LeftUpLeg	0	0	0	0	0	0	1
LeftLeg	0	0	0	0	0	0	1
LeftFoot	0	0	0	0	0	0	1
LeftToeBase	0	0	0	0	0	0	1
RightUpLeg	0	0	0	0	0	0	1
RightLeg	0	0	0	0	0	0	1
RightFoot	0	0	0	0	0	0	1
RightToeBase	0	0	0	0	0	0	1
[Hips]
24	24.3828392	1028.264771	-40.72518921	7.656346798	-84.29177856	-12.35935783	1.0
25	12.15710449	1027.401611	-30.15291214	27.42776108	-86.58319855	-31.88142395	1.0
26	1.734008789	1029.633179	-20.17904282	75.67848969	-87.82502747	-79.88104248	1.0
[Spine]
24	0	101.8159943	1.315000057	4.184083939	0.6183364987	3.469357252	1.0
25	0	101.8159943	1.315000057	4.053532124	0.6209549308	3.761888027	1.0
26	0	101.8159943	1.315000057	3.915309668	0.8262200952	3.667521238	1.0
[Spine1]
24	0	100.8349991	-10.00800037	1.678518057	-0.288628906	-1.752221823	1.0
25	0	100.8349991	-10.00800037	1.564249635	-0.01566936634	-1.039464951	1.0
26	0	100.8349991	-10.00800037	1.494101405	0.4733125269	-0.0289783366	1.0
[Spine2]
24	0	91	-13.73399925	1.704966903	-0.1600396782	-0.1049918458	1.0
25	0	91	-13.73399925	1.589761138	0.07723538578	0.06955755502	1.0
26	0	91	-13.73399925	1.503476501	0.5317255855	0.6006102562	1.0
[Neck]
24	0	166.7169952	-25.16200066	5.667618275	-1.38797164	-0.1023062542	1.0
25	0	166.7169952	-25.16200066	5.635696411	-0.9132118821	-0.1577255726	1.0
26	0	166.7169952	-25.16200066	5.668813229	-0.559279263	-0.08407605439	1.0
[Head]
24	0	96.17900085	16.84999847	-6.224068642	-6.364958286	2.822284222	1.0
25	0	96.17900085	16.84999847	-6.515955448	-4.281380177	1.965072632	1.0
26	0	96.17900085	16.84999847	-6.735355854	-2.292957783	1.292291164	1.0
[LeftEye]
24	30.6760006	64.09500122	92.83599854	0	0	0	1.0
25	30.6760006	64.09500122	92.83599854	0	0	0	1.0
26	30.6760006	64.09500122	92.83599854	0	0	0	1.0
[RightEye]
24	-30.6760006	64.09500122	92.83499908	0	0	0	1.0
25	-30.6760006	64.09500122	92.83499908	0	0	0	1.0
26	-30.6760006	64.09500122	92.83499908	0	0	0	1.0
[LeftShoulder]
24	45.70400238	109.4599991	-26.28000069	5.006987095	-16.22921371	-15.68136215	1.0
25	45.70400238	109.4599991	-26.28000069	5.03734684	-16.37926865	-15.94961834	1.0
26	45.70400238	109.4599991	-26.28000069	5.051521301	-17.69476128	-16.41559792	1.0
[LeftArm]
24	105.923996	-5.24600029	-22.32099915	13.89718151	-1.193030477	-62.71558762	1.0
25	105.923996	-5.24600029	-22.32099915	14.18792152	-1.819356918	-64.29709625	1.0
26	105.923996	-5.24600029	-22.32099915	14.86313725	-1.744420171	-65.88306427	1.0
[LeftForeArm]
24	278.414978	-0.0009999999311	0	-1.071784709e-06	-4.536037922	-0.0001997436484	1.0
25	278.414978	-0.0009999999311	0	2.159977839e-06	-3.648472786	-0.0002019631211	1.0
26	278.414978	-0.0009999999311	0	-1.886553605e-06	-2.899049044	-0.0002017517691	1.0
[LeftHand]
24	283.2879944	0	0	-30.01496887	-0.8137022853	-3.65907979	1.0
25	283.2879944	0	0	-30.15084457	-2.530255795	-4.273170948	1.0
26	283.2879944	0	0	-30.59409332	-3.823190689	-4.520076752	1.0
[LeftHandThumb1]
24	24.6609993	-15.75	26.8239994	-0.4889863729	2.201392412	4.818544865	1.0
25	24.6609993	-15.75	26.8239994	-0.4889863729	2.201392412	4.818544865	1.0
26	24.6609993	-15.75	26.8239994	-0.4889863729	2.201392412	4.818544865	1.0
[LeftHandThumb2]
24	32.29800034	-18.64699936	18.64699936	20.72882271	19.22928238	22.90680695	1.0
25	32.29800034	-18.64699936	18.64699936	20.69381714	19.07511139	22.82108498	1.0
26	32.29800034	-18.64699936	18.64699936	20.57950401	18.80632973	22.70239067	1.0
[LeftHandThumb3]
24	26.52600098	-15.31499958	15.31499958	-13.16234493	5.484610081	7.99187088	1.0
25	26.52600098	-15.31499958	15.31499958	-13.14445114	5.464082241	8.006123543	1.0
26	26.52600098	-15.31499958	15.31499958	-13.1224041	5.452553272	8.017782211	1.0
[LeftHandThumb4]
24	19.54599953	-11.28499985	11.28499985	0	0	0	1.0
25	19.54599953	-11.28499985	11.28499985	0	0	0	1.0
26	19.54599953	-11.28499985	11.28499985	0	0	0	1.0
[LeftHandIndex1]
24	91.09299469	-5.170999527	22.60099792	0.07070381939	-0.8623845577	-8.81068325	1.0
25	91.09299469	-5.170999527	22.60099792	0.03576226532	-0.8674137592	-9.105991364	1.0
26	91.09299469	-5.170999527	22.60099792	-0.01374517195	-0.8935998678	-9.427958488	1.0
[LeftHandIndex2]
24	36.76399994	0	0	-0.2682111859	1.750002384	-17.42622757	1.0
25	36.76399994	0	0	-0.2666567564	1.745033026	-17.37508392	1.0
26	36.76399994	0	0	-0.2666116357	1.744859695	-17.37317848	1.0
[LeftHandIndex3]
24	28.83100128	0	0	-0.05815380439	0.822350502	-8.088096619	1.0
25	28.83100128	0	0	-0.05741047114	0.8171927929	-8.036971092	1.0
26	28.83100128	0	0	-0.05737656727	0.8169975281	-8.035093307	1.0
[LeftHandIndex4]
24	23.92700005	0	0	0	0	0	1.0
25	23.92700005	0	0	0	0	0	1.0
26	23.92700005	0	0	0	0	0	1.0
[LeftHandMiddle1]
24	95.33399963	0	0	-0.8200225234	2.694941282	-16.09353638	1.0
25	95.33399963	0	0	-0.8328639269	2.712562561	-16.28154755	1.0
26	95.33399963	0	0	-0.8483692408	2.72268939	-16.50814629	1.0
[LeftHandMiddle2]
24	36.98199844	0	0	-0.2689920068	1.75246191	-17.45135117	1.0
25	36.98199844	0	0	-0.2694663107	1.753970861	-17.46693039	1.0
26	36.98199844	0	0	-0.2702041566	1.756301999	-17.49105835	1.0
[LeftHandMiddle3]
24	29.50900078	0	0	-0.3006393015	1.850088835	-18.45839882	1.0
25	29.50900078	0	0	-0.3011409938	1.851597071	-18.47398567	1.0
26	29.50900078	0	0	-0.3019280434	1.853951573	-18.49821091	1.0
[LeftHandMiddle4]
24	28.3390007	0	0	0	0	0	1.0
25	28.3390007	0	0	0	0	0	1.0
26	28.3390007	0	0	0	0	0	1.0
[LeftHandRing1]
24	91.04499817	-0.4390000105	-18.65100098	-1.25812757	3.255343199	-22.13154602	1.0
25	91.04499817	-0.4390000105	-18.65100098	-1.273542881	3.193226099	-22.33320808	1.0
26	91.04499817	-0.4390000105	-18.65100098	-1.293789506	3.126022577	-22.59720612	1.0
[LeftHandRing2]
24	31.54000092	0	0	-0.3852330446	2.086370468	-20.9211235	1.0
25	31.54000092	0	0	-0.3852691948	2.086464643	-20.92220497	1.0
26	31.54000092	0	0	-0.3857731223	2.087755919	-20.93572426	1.0
[LeftHandRing3]
24	29.37700081	0	0	-0.2820729613	1.793552041	-17.874506	1.0
25	29.37700081	0	0	-0.28210482	1.79366684	-17.87572479	1.0
26	29.37700081	0	0	-0.2825419307	1.794996977	-17.88943291	1.0
[LeftHandRing4]
24	26.47500038	0	0	0	0	0	1.0
25	26.47500038	0	0	0	0	0	1.0
26	26.47500038	0	0	0	0	0	1.0
[LeftHandPinky1]
24	80.77799988	-4.887000084	-38.06099701	-1.863185644	4.873833179	-27.87457085	1.0
25	80.77799988	-4.887000084	-38.06099701	-1.943798065	4.612021923	-28.22010994	1.0
26	80.77799988	-4.887000084	-38.06099701	-2.025380135	4.35807848	-28.59018326	1.0
[LeftHandPinky2]
24	36	0	0	-0.2680014968	1.749314308	-17.41896629	1.0
25	36	0	0	-0.2679969966	1.749309421	-17.41897202	1.0
26	36	0	0	-0.2679916918	1.749305606	-17.41898155	1.0
[LeftHandPinky3]
24	21.14200211	0	0	-0.2406204641	1.65955019	-16.49840164	1.0
25	21.14200211	0	0	-0.240374878	1.658755302	-16.49014664	1.0
26	21.14200211	0	0	-0.2399502695	1.6573174	-16.47535324	1.0
[LeftHandPinky4]
24	19.75699997	0	0	0	0	0	1.0
25	19.75699997	0	0	0	0	0	1.0
26	19.75699997	0	0	0	0	0	1.0
[RightShoulder]
24	-45.70000076	109.4620056	-26.28000069	4.702438831	14.76298809	13.43626118	1.0
25	-45.70000076	109.4620056	-26.28000069	4.619013309	15.35370541	12.91217327	1.0
26	-45.70000076	109.4620056	-26.28000069	4.604943275	14.76399803	11.95979309	1.0
[RightArm]
24	-105.9280014	-5.248000145	-22.32099915	14.15710068	-1.891643524	67.03147888	1.0
25	-105.9280014	-5.248000145	-22.32099915	20.14372444	-1.312212467	66.86505127	1.0
26	-105.9280014	-5.248000145	-22.32099915	25.43767738	-0.08794160932	66.74508667	1.0
[RightForeArm]
24	-278.414978	0	0	-4.745451406e-06	9.704532623	-1.447814975e-05	1.0
25	-278.414978	0	0	3.705802555e-06	9.384407043	7.587681466e-06	1.0
26	-278.414978	0	0	2.602507493e-06	8.676273346	1.968383003e-05	1.0
[RightHand]
24	-283.2879944	0	0.0009999999311	-14.43416119	1.794157982	-6.940748692	1.0
25	-283.2879944	0	0.0009999999311	-18.03327942	0.7059249282	-3.892241001	1.0
26	-283.2879944	0	0.0009999999311	-20.04447937	0.5139256716	0.1122300848	1.0
[RightHandPinky1]
24	-80.76699829	-4.885000229	-38.06000137	-1.429787278	-5.107625008	25.97834587	1.0
25	-80.76699829	-4.885000229	-38.06000137	-1.430359244	-5.049854755	25.89172173	1.0
26	-80.76699829	-4.885000229	-38.06000137	-1.442374825	-4.902348518	25.86694908	1.0
[RightHandPinky2]
24	-36	0	0.0009999999311	-0.2118007988	-1.385791302	17.39800835	1.0
25	-36	0	0.0009999999311	-0.2111501843	-1.383735657	17.37159538	1.0
26	-36	0	0.0009999999311	-0.2109828442	-1.383185506	17.36430168	1.0
[RightHandPinky3]
24	-21.14200211	0	0	-0.1910447776	-1.317690492	16.49884224	1.0
25	-21.14200211	0	0	-0.1904383898	-1.315617442	16.47200775	1.0
26	-21.14200211	0	0	-0.1902564913	-1.314996719	16.46406555	1.0
[RightHandPinky4]
24	-19.75699997	0	0	0	0	0	1.0
25	-19.75699997	0	0	0	0	0	1.0
26	-19.75699997	0	0	0	0	0	1.0
[RightHandRing1]
24	-91.03599548	-0.4390000105	-18.65100098	-1.020672083	-2.541567087	20.10943031	1.0
25	-91.03599548	-0.4390000105	-18.65100098	-1.011472464	-2.477810144	19.96985245	1.0
26	-91.03599548	-0.4390000105	-18.65100098	-1.002263665	-2.462842464	19.82875443	1.0
[RightHandRing2]
24	-31.54000092	0	0	-0.3040768206	-1.651898146	20.8584919	1.0
25	-31.54000092	0	0	-0.3033747375	-1.650055051	20.83415031	1.0
26	-31.54000092	0	0	-0.3030162752	-1.649132967	20.82181931	1.0
[RightHandRing3]
24	-29.37700081	0	0	-0.2223328948	-1.419023395	17.80899429	1.0
25	-29.37700081	0	0	-0.2217448205	-1.417186141	17.78507614	1.0
26	-29.37700081	0	0	-0.2214393467	-1.416223168	17.77280426	1.0
[RightHandRing4]
24	-26.47500038	0	0	0	0	0	1.0
25	-26.47500038	0	0	0	0	0	1.0
26	-26.47500038	0	0	0	0	0	1.0
[RightHandMiddle1]
24	-95.32500458	0	0	-0.6539645791	-2.184328556	14.2036953	1.0
25	-95.32500458	0	0	-0.6442736983	-2.163691521	14.03857994	1.0
26	-95.32500458	0	0	-0.6412550211	-2.130607367	13.98746967	1.0
[RightHandMiddle2]
24	-36.98199844	0	0	-0.2106236219	-1.382039547	17.32967186	1.0
25	-36.98199844	0	0	-0.2100402713	-1.38018477	17.30570602	1.0
26	-36.98199844	0	0	-0.2101600021	-1.380580902	17.31076241	1.0
[RightHandMiddle3]
24	-29.50900078	0	0	-0.2356327623	-1.461770892	18.33826447	1.0
25	-29.50900078	0	0	-0.2350175679	-1.459923506	18.31433487	1.0
26	-29.50900078	0	0	-0.2351561636	-1.460323811	18.31954002	1.0
[RightHandMiddle4]
24	-28.3390007	0	0.0009999999311	0	0	0	1.0
25	-28.3390007	0	0.0009999999311	0	0	0	1.0
26	-28.3390007	0	0.0009999999311	0	0	0	1.0
[RightHandIndex1]
24	-91.08300018	-5.167999744	22.60099792	0.1062208787	1.563694	6.014967918	1.0
25	-91.08300018	-5.167999744	22.60099792	0.0976074487	1.614652634	5.826915264	1.0
26	-91.08300018	-5.167999744	22.60099792	0.1065580621	1.608130693	5.759830475	1.0
[RightHandIndex2]
24	-36.76399994	0	0	-0.2125392556	-1.388141036	17.40874863	1.0
25	-36.76399994	0	0	-0.2128509134	-1.389136553	17.42177391	1.0
26	-36.76399994	0	0	-0.2128212899	-1.389047861	17.42072105	1.0
[RightHandIndex3]
24	-28.83100128	0	0	-0.04577137157	-0.650203228	8.054607391	1.0
25	-28.83100128	0	0	-0.0459234044	-0.6512531638	8.067652702	1.0
26	-28.83100128	0	0	-0.04592248425	-0.6511682868	8.066608429	1.0
[RightHandIndex4]
24	-23.92700005	0	0	0	0	0	1.0
25	-23.92700005	0	0	0	0	0	1.0
26	-23.92700005	0	0	0	0	0	1.0
[RightHandThumb1]
24	-24.64799881	-15.72700024	26.82600021	-1.658462644	-0.289145112	-4.221315384	1.0
25	-24.64799881	-15.72700024	26.82600021	-1.658462644	-0.289145112	-4.221315384	1.0
26	-24.64799881	-15.72700024	26.82600021	-1.658462644	-0.289145112	-4.221315384	1.0
[RightHandThumb2]
24	-32.29800034	-18.64699936	18.64699936	19.78724289	-21.59861565	-22.4582653	1.0
25	-32.29800034	-18.64699936	18.64699936	19.43645096	-21.35876083	-22.26159859	1.0
26	-32.29800034	-18.64699936	18.64699936	19.38631248	-21.35212708	-22.26224327	1.0
[RightHandThumb3]
24	-26.52600098	-15.31399918	15.31399918	-14.27712345	-7.625141144	-10.96181297	1.0
25	-26.52600098	-15.31399918	15.31399918	-14.24786091	-7.759249687	-10.91429234	1.0
26	-26.52600098	-15.31399918	15.31399918	-14.24366093	-7.780287743	-10.90932751	1.0
[RightHandThumb4]
24	-19.54599953	-11.28499985	11.28499985	0	0	0	1.0
25	-19.54599953	-11.28499985	11.28499985	0	0	0	1.0
26	-19.54599953	-11.28499985	11.28499985	0	0	0	1.0
[LeftUpLeg]
24	82.07800293	-67.51699829	-15.99599934	-11.64015865	8.944067955	10.08329582	1.0
25	82.07800293	-67.51699829	-15.99599934	-10.48993969	12.55022812	8.818834305	1.0
26	82.07800293	-67.51699829	-15.99599934	-9.309454918	15.93936539	8.515319824	1.0
[LeftLeg]
24	0	-443.7049866	2.845999956	12.87897396	8.523472786	0.07008262724	1.0
25	0	-443.7049866	2.845999956	12.06366539	3.736213446	1.110018492	1.0
26	0	-443.7049866	2.845999956	11.2993803	-4.179593563	-0.2349033207	1.0
[LeftFoot]
24	0	-444.2789917	-29.8219986	3.226730585	-6.984914303	-10.45649433	1.0
25	0	-444.2789917	-29.8219986	2.831737518	-6.667227745	-8.492221832	1.0
26	0	-444.2789917	-29.8219986	3.586448908	0.5338675976	-5.642999649	1.0
[LeftToeBase]
24	0	-87.28699493	107.1060028	-9.773216248	1.149529453e-05	7.044200629e-06	1.0
25	0	-87.28699493	107.1060028	-6.739164352	3.041382115e-05	1.85427416e-06	1.0
26	0	-87.28699493	107.1060028	-4.988434792	-1.18245498e-05	1.146972863e-06	1.0
[RightUpLeg]
24	-82.07800293	-67.51699829	-15.99599934	-4.297077656	-15.34277344	2.472010851	1.0
25	-82.07800293	-67.51699829	-15.99599934	-4.203220844	-13.20236111	2.683315277	1.0
26	-82.07800293	-67.51699829	-15.99599934	-2.907374144	-12.00991154	2.996012926	1.0
[RightLeg]
24	0	-443.7049866	2.861999989	15.97411346	-2.443388939	-0.7697128654	1.0
25	0	-443.7049866	2.861999989	16.44605255	-6.010448933	-2.747716427	1.0
26	0	-443.7049866	2.861999989	14.33297443	-9.093639374	-4.330199242	1.0
[RightFoot]
24	0	-444.2770081	-29.83799934	-7.836708069	-14.58240795	0.03086375073	1.0
25	0	-444.2770081	-29.83799934	-8.297434807	-10.55277538	1.41452837	1.0
26	0	-444.2770081	-29.83799934	-7.212565422	-6.162345409	2.279169559	1.0
[RightToeBase]
24	0	-87.28699493	107.1060028	-7.079485893	-1.403144779e-06	1.217193471e-06	1.0
25	0	-87.28699493	107.1060028	-6.716906071	1.94469103e-05	-4.437362406e-07	1.0
26	0	-87.28699493	107.1060028	-6.670584679	2.442412188e-05	-2.477691396e-06	1.0
[EndOfFile]
